<?xml version="1.0" encoding="UTF-8" standalone="no"?>
<!-- Created with Inkscape (http://www.inkscape.org/) -->

<svg
   width="351.92194"
   height="417.72644"
   viewBox="0 0 93.113269 110.52345"
   version="1.1"
   id="svg1"
   xml:space="preserve"
   inkscape:version="1.4.2 (ebf0e940d0, 2025-05-08)"
   sodipodi:docname="logo.svg"
   inkscape:export-filename="sug.png"
   inkscape:export-xdpi="96"
   inkscape:export-ydpi="96"
   xmlns:inkscape="http://www.inkscape.org/namespaces/inkscape"
   xmlns:sodipodi="http://sodipodi.sourceforge.net/DTD/sodipodi-0.dtd"
   xmlns="http://www.w3.org/2000/svg"
   xmlns:svg="http://www.w3.org/2000/svg"><sodipodi:namedview
     id="namedview1"
     pagecolor="#ffffff"
     bordercolor="#000000"
     borderopacity="0.25"
     inkscape:showpageshadow="2"
     inkscape:pageopacity="0.0"
     inkscape:pagecheckerboard="0"
     inkscape:deskcolor="#d1d1d1"
     inkscape:document-units="px"
     inkscape:zoom="1.5974719"
     inkscape:cx="231.61596"
     inkscape:cy="189.04871"
     inkscape:window-width="2119"
     inkscape:window-height="1044"
     inkscape:window-x="4"
     inkscape:window-y="43"
     inkscape:window-maximized="1"
     inkscape:current-layer="layer1" /><defs
     id="defs1" /><g
     inkscape:label="Layer 1"
     inkscape:groupmode="layer"
     id="layer1"
     transform="translate(-13.868744,-8.8508467)">
    
    
    
    
    
    
    
    
    
    
    
    
    
    
    
    
    
    
    
    
    
    
    
    
    
    
    
    
    
    <g
   id="g51"
   transform="matrix(2.5628432,0,0,2.5456985,-1.8777665,-0.47254186)"><path
     style="fill:#0e8959;fill-opacity:1;stroke-width:0.064375;stroke-linejoin:round;stroke-opacity:0.941176"
     d="m 34.922037,15.133803 -0.04308,6.828284 2.154031,2.907943 2.477137,-6.763662 z"
     id="path5" /><path
     style="fill:#4a4a4a;fill-opacity:0.941176;stroke-width:0.064375;stroke-linejoin:round;stroke-opacity:0.941176"
     d="m 14.340133,14.587441 h 6.199138"
     id="path2" /><path
     style="fill:#4a4a4a;fill-opacity:0.941176;stroke-width:0.064375;stroke-linejoin:round;stroke-opacity:0.941176"
     d="M 18.914977,13.589021 14.0719,8.8651599"
     id="path4" /><path
     style="fill:#013959;fill-opacity:1;stroke-width:0.064375;stroke-linejoin:round;stroke-opacity:0.941176"
     d="m 34.922037,15.133802 -7.926842,-3.231048 -1.874011,7.797597 z"
     id="path6" /><path
     style="fill:#2fa665;fill-opacity:1;stroke-width:0.064375;stroke-linejoin:round;stroke-opacity:0.941176"
     d="m 39.510127,18.106368 -1.682999,-4.300739 -2.905091,1.328174 z"
     id="path9" /><path
     style="fill:#be5f1a;fill-opacity:1;stroke-width:0.064375;stroke-linejoin:round;stroke-opacity:0.941176"
     d="m 37.827128,13.805629 -0.01511,-3.607541 0.24151,-0.4226407 3.471692,1.6754687 z"
     id="path10" /><path
     style="fill:#f6a426;fill-opacity:1;stroke-width:0.064375;stroke-linejoin:round;stroke-opacity:0.941176"
     d="m 40.061085,6.10753 -2.007556,3.6679173 3.471693,1.6754687 0.573596,-2.8226361 z"
     id="path11" /><path
     style="fill:#f6a525;fill-opacity:1;stroke-width:0.064375;stroke-linejoin:round;stroke-opacity:0.941176"
     d="M 42.098818,8.6282799 42.476175,12.58299 41.525222,11.450916 Z"
     id="path12" /><path
     style="fill:#22b79a;fill-opacity:1;stroke-width:0.064375;stroke-linejoin:round;stroke-opacity:0.941176"
     d="m 40.061085,6.10753 -5.192444,0.2415087 1.67547,2.7773529 1.509418,0.6490557 z"
     id="path13" /><path
     style="fill:#02626b;fill-opacity:1;stroke-width:0.064375;stroke-linejoin:round;stroke-opacity:0.941176"
     d="M 40.061085,6.10753 37.268636,3.9792318 34.868641,6.3490387 Z"
     id="path14" /><path
     style="fill:#099d85;fill-opacity:1;stroke-width:0.064375;stroke-linejoin:round;stroke-opacity:0.941176"
     d="m 37.268636,3.9792318 -5.313198,-0.316981 -4.316974,4.392445 7.230177,-1.7056571 z"
     id="path15" /><path
     style="fill:#01776b;fill-opacity:1;stroke-width:0.064375;stroke-linejoin:round;stroke-opacity:0.941176"
     d="m 27.638464,8.0546958 -0.643269,3.8480582 1.848386,0.753417 6.02506,-6.3071323 z"
     id="path16" /><path
     style="fill:#0f91a8;fill-opacity:1;stroke-width:0.064375;stroke-linejoin:round;stroke-opacity:0.941176"
     d="M 23.505661,28.574966 10.164459,29.570528 25.121184,19.700351 Z"
     id="path17" /><path
     style="fill:#045491;fill-opacity:1;stroke-width:0.064375;stroke-linejoin:round;stroke-opacity:0.941176"
     d="M 25.121184,19.700351 26.995195,11.902753 10.164459,29.570528 Z"
     id="path18" /><path
     style="fill:#00615b;fill-opacity:1;stroke-width:0.064375;stroke-linejoin:round;stroke-opacity:0.941176"
     d="m 23.505661,28.574966 -2.231336,4.021596 8.062221,-0.06484 z"
     id="path19" /><path
     style="fill:#015356;fill-opacity:1;stroke-width:0.064375;stroke-linejoin:round;stroke-opacity:0.941176"
     d="m 16.83506,29.072748 -5.071126,8.235779 11.741727,-8.733561 z"
     id="path20" /><path
     style="fill:#2aad71;fill-opacity:1;stroke-width:0.064375;stroke-linejoin:round;stroke-opacity:0.941176"
     d="m 12.84466,41.1343 8.429665,-8.537738 2.231336,-4.021596 -6.504238,4.837887 z"
     id="path21" /><path
     style="fill:#f8a122;fill-opacity:1;stroke-width:0.064375;stroke-linejoin:round;stroke-opacity:0.941176"
     d="M 11.763934,37.308531 17.001423,33.412853 12.84466,41.1343 6.144157,47.078294 Z"
     id="path22" /><path
     style="fill:#234145;fill-opacity:1;stroke-width:0.064375;stroke-linejoin:round;stroke-opacity:0.941176"
     d="m 29.336546,32.53172 3.085078,2.838563 -3.855961,0.0047 -2.890991,-2.813819 z"
     id="path23"
     sodipodi:nodetypes="ccccc" /><path
     style="fill:#203e40;fill-opacity:1;stroke-width:0.064375;stroke-linejoin:round;stroke-opacity:0.941176"
     d="m 27.371404,35.376448 7.398554,-0.009 1.309881,1.192441 h -9.864743 z"
     id="path24" /><path
     style="fill:#014966;fill-opacity:1;stroke-width:0.064375;stroke-linejoin:round;stroke-opacity:0.941176"
     d="m 23.505661,28.574966 11.373297,-6.612879 0.04308,-6.828285 z"
     id="path25" /><path
     style="fill:#046a90;fill-opacity:1;stroke-width:0.064375;stroke-linejoin:round;stroke-opacity:0.941176"
     d="M 23.50566,28.574966 34.922037,15.133803 25.121184,19.70035 Z"
     id="path26" /><path
     style="fill:#037e56;fill-opacity:1;stroke-width:0.064375;stroke-linejoin:round;stroke-opacity:0.941176"
     d="m 34.87896,21.962089 2.15403,2.907941 -8.09538,7.390975 -0.499294,-0.338815 z"
     id="path27" /><path
     style="fill:#0b8e58;fill-opacity:1;stroke-width:0.064375;stroke-linejoin:round;stroke-opacity:0.941176"
     d="M 34.878958,21.962087 28.438316,31.92219 23.505661,28.574966 Z"
     id="path28"
     sodipodi:nodetypes="cccc" /><path
     style="fill:#11a87b;fill-opacity:1;stroke-width:0.064375;stroke-linejoin:round;stroke-opacity:0.941176"
     d="m 34.868641,6.3490393 1.67547,2.7773523 -1.622074,6.0074104 -6.078456,-2.477632 z"
     id="path29" /><path
     style="fill:#11a87b;fill-opacity:1;stroke-width:0.064375;stroke-linejoin:round;stroke-opacity:0.941176"
     d="M 34.922037,15.133803 37.827128,13.805629 37.932775,9.9867673 36.544111,9.1263916 Z"
     id="path30" /><ellipse
     style="fill:#0d2938;fill-opacity:1;stroke-width:0.0721453;stroke-linejoin:round;stroke-opacity:0.941176"
     id="path31"
     cx="35.819908"
     cy="8.1919174"
     rx="1.2315758"
     ry="1.2203125" /><path
     style="fill:#11a87b;fill-opacity:1;stroke-width:0.064375;stroke-linejoin:round;stroke-opacity:0.941176"
     d="m 36.544111,9.1263916 1.509418,0.6490557 -0.120754,0.21132 z"
     id="path32" /></g>
    
</g></svg>
