<?xml version="1.0" encoding="UTF-8" standalone="no"?>
<!-- Created with Inkscape (http://www.inkscape.org/) -->

<svg
   width="1464"
   height="478"
   viewBox="0 0 387.34999 126.47083"
   version="1.1"
   id="svg1"
   xml:space="preserve"
   inkscape:version="1.4.1 (93de688d07, 2025-03-30)"
   sodipodi:docname="sug.svg"
   inkscape:export-filename="sug.png"
   inkscape:export-xdpi="96"
   inkscape:export-ydpi="96"
   xmlns:inkscape="http://www.inkscape.org/namespaces/inkscape"
   xmlns:sodipodi="http://sodipodi.sourceforge.net/DTD/sodipodi-0.dtd"
   xmlns="http://www.w3.org/2000/svg"
   xmlns:svg="http://www.w3.org/2000/svg"><sodipodi:namedview
     id="namedview1"
     pagecolor="#ffffff"
     bordercolor="#000000"
     borderopacity="0.25"
     inkscape:showpageshadow="2"
     inkscape:pageopacity="0.0"
     inkscape:pagecheckerboard="0"
     inkscape:deskcolor="#d1d1d1"
     inkscape:document-units="px"
     inkscape:zoom="0.9211583"
     inkscape:cx="694.77744"
     inkscape:cy="354.44505"
     inkscape:window-width="2548"
     inkscape:window-height="1549"
     inkscape:window-x="4"
     inkscape:window-y="43"
     inkscape:window-maximized="1"
     inkscape:current-layer="layer1" /><defs
     id="defs1" /><g
     inkscape:label="Layer 1"
     inkscape:groupmode="layer"
     id="layer1">
    
    <g
   id="g52"
   transform="matrix(2.5628432,0,0,2.5456985,6.7723344,-160.30488)"><rect
     width="151.87083"
     height="49.477081"
     x="-3.3751998"
     y="62.785259"
     id="background-rect"
     style="fill:#1e1e1e;fill-opacity:1" /><path
     style="fill:#1e1e1e;fill-opacity:1;stroke-width:0.3;stroke-linejoin:round;stroke-opacity:0.941176"
     d="m -3.3751997,91.960741 c 0,0 26.3859127,5.309976 34.8416517,-9.335791 C 39.922188,67.97918 148.49564,62.785259 148.49564,62.785259 V 112.26235 H -3.3751997 Z"
     id="path3" /><path
     d="m -3.3726114,63.174005 v 18.32652 c 0,0 32.4402904,-2.94892 48.6605944,-12.00701 7.052303,-3.9383 27.482651,-5.64654 48.324698,-6.31951 z"
     style="fill:#00353d;stroke:none;stroke-width:0;stroke-dasharray:none"
     id="path38" /><path
     d="m 93.612681,63.174005 c -20.842047,0.67297 -41.272395,2.38121 -48.324698,6.31951 -16.220304,9.05809 -48.6605944,12.00701 -48.6605944,12.00701 v 10.84895 c 0.05605,0.0113 26.3950594,5.29432 34.8418004,-9.33586 8.43306,-14.60649 116.447181,-19.8118 117.026451,-19.83961 -0.29719,-0.009 -27.93433,-0.87016 -54.882959,0 z"
     style="fill:#00323a;stroke:none;stroke-width:0;stroke-linejoin:round;stroke-dasharray:none;stroke-opacity:0.941176"
     id="path40" /><path
     d="m 148.49512,63.174005 c -0.58026,0.0279 -108.59291,5.23319 -117.025931,19.83961 -8.446741,14.63018 -34.7857524,9.34713 -34.8418004,9.33586 v 10.150815 c 0.06617,0.004 36.7706364,2.48011 49.9246004,-6.675055 13.165831,-9.16342 32.756625,-21.38126 51.399447,-20.95996 18.642824,0.42131 50.546784,-5.68802 50.546784,-5.68802 v -6.00325 c 0,0 -0.001,-3e-5 -0.003,0 z"
     style="fill:#002b35;stroke-width:0.3;stroke-linejoin:round;stroke-opacity:0.941176"
     id="path42" /><path
     d="m 148.49822,69.177255 c 0,0 -31.90396,6.10933 -50.546784,5.68802 -18.642828,-0.4213 -38.233616,11.79654 -51.399447,20.95996 -13.153964,9.155165 -49.8584284,6.679525 -49.9246004,6.675055 v 10.1508 h 8.742101 c 0,0 31.5978654,-7.03058 41.2879184,-8.18917 9.690052,-1.1586 39.392155,-6.846295 51.926028,-12.323285 12.533874,-5.47698 49.914784,-7.89925 49.914784,-7.89925 z"
     style="fill:#012330;stroke-width:0.3;stroke-linejoin:round;stroke-opacity:0.941176"
     id="path48" /><path
     d="m 148.49822,96.035555 c -0.0454,2.6e-4 -19.38134,0.11162 -28.95482,5.371775 -9.55384,5.24936 -55.420531,11.20543 -55.715981,11.24376 h 84.670801 z"
     style="fill:#00242f;stroke-width:0.3;stroke-linejoin:round;stroke-opacity:0.941176"
     id="path50" /><path
     d="m 148.49822,84.239385 c 0,0 -37.38091,2.42227 -49.914784,7.89925 -12.533873,5.47699 -42.235976,11.164685 -51.926028,12.323285 -9.690053,1.15859 -41.2879184,8.18917 -41.2879184,8.18917 H 63.827419 c 0.29545,-0.0383 46.162141,-5.9944 55.715981,-11.24376 9.57348,-5.260155 28.90945,-5.371515 28.95482,-5.371775 z"
     style="fill:#001c28;fill-opacity:1;stroke-width:0.3;stroke-linejoin:round;stroke-opacity:0.941176"
     id="path49" /><path
     d="m 148.49822,96.035555 c 0,0 -19.37009,0.10544 -28.95482,5.371775 -9.58472,5.26633 -55.717531,11.24376 -55.717531,11.24376 h 84.672351 z"
     style="fill:#02161f;stroke-width:0.3;stroke-linejoin:round;stroke-opacity:0.941176"
     id="path47" /></g>
    
    
    
    
    
    
    
    
    
    
    
    
    
    
    
    
    
    
    
    
    
    
    
    
    
    
    <text
   xml:space="preserve"
   style="font-style:normal;font-variant:normal;font-weight:bold;font-stretch:normal;font-size:27.8437px;font-family:'Nimbus Sans';-inkscape-font-specification:'Nimbus Sans Bold';text-align:start;writing-mode:lr-tb;direction:ltr;text-anchor:start;fill:#e9ddaf;fill-opacity:1;stroke-width:0.16443;stroke-linejoin:round;stroke-opacity:0.941176"
   x="39.228371"
   y="116.43221"
   id="text31"
   transform="scale(1.0033617,0.99664953)"><tspan
     sodipodi:role="line"
     id="tspan31"
     style="font-style:normal;font-variant:normal;font-weight:bold;font-stretch:normal;font-size:27.8437px;font-family:'Nimbus Sans';-inkscape-font-specification:'Nimbus Sans Bold';fill:#d5f6ff;stroke-width:0.16443"
     x="39.228371"
     y="116.43221">oiseau</tspan></text>
    <g
   id="g51"
   transform="matrix(2.5628432,0,0,2.5456985,-1.8777665,-0.47254186)"><path
     style="fill:#0e8959;fill-opacity:1;stroke-width:0.064375;stroke-linejoin:round;stroke-opacity:0.941176"
     d="m 34.922037,15.133803 -0.04308,6.828284 2.154031,2.907943 2.477137,-6.763662 z"
     id="path5" /><path
     style="fill:#4a4a4a;fill-opacity:0.941176;stroke-width:0.064375;stroke-linejoin:round;stroke-opacity:0.941176"
     d="m 14.340133,14.587441 h 6.199138"
     id="path2" /><path
     style="fill:#4a4a4a;fill-opacity:0.941176;stroke-width:0.064375;stroke-linejoin:round;stroke-opacity:0.941176"
     d="M 18.914977,13.589021 14.0719,8.8651599"
     id="path4" /><path
     style="fill:#013959;fill-opacity:1;stroke-width:0.064375;stroke-linejoin:round;stroke-opacity:0.941176"
     d="m 34.922037,15.133802 -7.926842,-3.231048 -1.874011,7.797597 z"
     id="path6" /><path
     style="fill:#2fa665;fill-opacity:1;stroke-width:0.064375;stroke-linejoin:round;stroke-opacity:0.941176"
     d="m 39.510127,18.106368 -1.682999,-4.300739 -2.905091,1.328174 z"
     id="path9" /><path
     style="fill:#be5f1a;fill-opacity:1;stroke-width:0.064375;stroke-linejoin:round;stroke-opacity:0.941176"
     d="m 37.827128,13.805629 -0.01511,-3.607541 0.24151,-0.4226407 3.471692,1.6754687 z"
     id="path10" /><path
     style="fill:#f6a426;fill-opacity:1;stroke-width:0.064375;stroke-linejoin:round;stroke-opacity:0.941176"
     d="m 40.061085,6.10753 -2.007556,3.6679173 3.471693,1.6754687 0.573596,-2.8226361 z"
     id="path11" /><path
     style="fill:#f6a525;fill-opacity:1;stroke-width:0.064375;stroke-linejoin:round;stroke-opacity:0.941176"
     d="M 42.098818,8.6282799 42.476175,12.58299 41.525222,11.450916 Z"
     id="path12" /><path
     style="fill:#22b79a;fill-opacity:1;stroke-width:0.064375;stroke-linejoin:round;stroke-opacity:0.941176"
     d="m 40.061085,6.10753 -5.192444,0.2415087 1.67547,2.7773529 1.509418,0.6490557 z"
     id="path13" /><path
     style="fill:#02626b;fill-opacity:1;stroke-width:0.064375;stroke-linejoin:round;stroke-opacity:0.941176"
     d="M 40.061085,6.10753 37.268636,3.9792318 34.868641,6.3490387 Z"
     id="path14" /><path
     style="fill:#099d85;fill-opacity:1;stroke-width:0.064375;stroke-linejoin:round;stroke-opacity:0.941176"
     d="m 37.268636,3.9792318 -5.313198,-0.316981 -4.316974,4.392445 7.230177,-1.7056571 z"
     id="path15" /><path
     style="fill:#01776b;fill-opacity:1;stroke-width:0.064375;stroke-linejoin:round;stroke-opacity:0.941176"
     d="m 27.638464,8.0546958 -0.643269,3.8480582 1.848386,0.753417 6.02506,-6.3071323 z"
     id="path16" /><path
     style="fill:#0f91a8;fill-opacity:1;stroke-width:0.064375;stroke-linejoin:round;stroke-opacity:0.941176"
     d="M 23.505661,28.574966 10.164459,29.570528 25.121184,19.700351 Z"
     id="path17" /><path
     style="fill:#045491;fill-opacity:1;stroke-width:0.064375;stroke-linejoin:round;stroke-opacity:0.941176"
     d="M 25.121184,19.700351 26.995195,11.902753 10.164459,29.570528 Z"
     id="path18" /><path
     style="fill:#00615b;fill-opacity:1;stroke-width:0.064375;stroke-linejoin:round;stroke-opacity:0.941176"
     d="m 23.505661,28.574966 -2.231336,4.021596 8.062221,-0.06484 z"
     id="path19" /><path
     style="fill:#015356;fill-opacity:1;stroke-width:0.064375;stroke-linejoin:round;stroke-opacity:0.941176"
     d="m 16.83506,29.072748 -5.071126,8.235779 11.741727,-8.733561 z"
     id="path20" /><path
     style="fill:#2aad71;fill-opacity:1;stroke-width:0.064375;stroke-linejoin:round;stroke-opacity:0.941176"
     d="m 12.84466,41.1343 8.429665,-8.537738 2.231336,-4.021596 -6.504238,4.837887 z"
     id="path21" /><path
     style="fill:#f8a122;fill-opacity:1;stroke-width:0.064375;stroke-linejoin:round;stroke-opacity:0.941176"
     d="M 11.763934,37.308531 17.001423,33.412853 12.84466,41.1343 6.144157,47.078294 Z"
     id="path22" /><path
     style="fill:#234145;fill-opacity:1;stroke-width:0.064375;stroke-linejoin:round;stroke-opacity:0.941176"
     d="m 29.336546,32.53172 3.085078,2.838563 -3.855961,0.0047 -2.890991,-2.813819 z"
     id="path23"
     sodipodi:nodetypes="ccccc" /><path
     style="fill:#203e40;fill-opacity:1;stroke-width:0.064375;stroke-linejoin:round;stroke-opacity:0.941176"
     d="m 27.371404,35.376448 7.398554,-0.009 1.309881,1.192441 h -9.864743 z"
     id="path24" /><path
     style="fill:#014966;fill-opacity:1;stroke-width:0.064375;stroke-linejoin:round;stroke-opacity:0.941176"
     d="m 23.505661,28.574966 11.373297,-6.612879 0.04308,-6.828285 z"
     id="path25" /><path
     style="fill:#046a90;fill-opacity:1;stroke-width:0.064375;stroke-linejoin:round;stroke-opacity:0.941176"
     d="M 23.50566,28.574966 34.922037,15.133803 25.121184,19.70035 Z"
     id="path26" /><path
     style="fill:#037e56;fill-opacity:1;stroke-width:0.064375;stroke-linejoin:round;stroke-opacity:0.941176"
     d="m 34.87896,21.962089 2.15403,2.907941 -8.09538,7.390975 -0.499294,-0.338815 z"
     id="path27" /><path
     style="fill:#0b8e58;fill-opacity:1;stroke-width:0.064375;stroke-linejoin:round;stroke-opacity:0.941176"
     d="M 34.878958,21.962087 28.438316,31.92219 23.505661,28.574966 Z"
     id="path28"
     sodipodi:nodetypes="cccc" /><path
     style="fill:#11a87b;fill-opacity:1;stroke-width:0.064375;stroke-linejoin:round;stroke-opacity:0.941176"
     d="m 34.868641,6.3490393 1.67547,2.7773523 -1.622074,6.0074104 -6.078456,-2.477632 z"
     id="path29" /><path
     style="fill:#11a87b;fill-opacity:1;stroke-width:0.064375;stroke-linejoin:round;stroke-opacity:0.941176"
     d="M 34.922037,15.133803 37.827128,13.805629 37.932775,9.9867673 36.544111,9.1263916 Z"
     id="path30" /><ellipse
     style="fill:#0d2938;fill-opacity:1;stroke-width:0.0721453;stroke-linejoin:round;stroke-opacity:0.941176"
     id="path31"
     cx="35.819908"
     cy="8.1919174"
     rx="1.2315758"
     ry="1.2203125" /><path
     style="fill:#11a87b;fill-opacity:1;stroke-width:0.064375;stroke-linejoin:round;stroke-opacity:0.941176"
     d="m 36.544111,9.1263916 1.509418,0.6490557 -0.120754,0.21132 z"
     id="path32" /></g>
    <text
   xml:space="preserve"
   style="font-style:normal;font-variant:normal;font-weight:bold;font-stretch:normal;font-size:28.6062px;font-family:'Nimbus Sans';-inkscape-font-specification:'Nimbus Sans Bold';text-align:start;writing-mode:lr-tb;direction:ltr;text-anchor:start;fill-opacity:1;stroke-width:0.168934;stroke-linejoin:round;stroke-opacity:0.941176"
   x="132.71875"
   y="55.489685"
   id="text32"
   transform="scale(1.0033617,0.99664953)"><tspan
     sodipodi:role="line"
     id="tspan32"
     style="font-weight:normal;fill:#1abc9c;stroke-width:0.168934"
     x="132.71875"
     y="55.489685">A modern</tspan><tspan
     sodipodi:role="line"
     style="fill:#ffffff;stroke-width:0.168934"
     x="132.71875"
     y="91.247398"
     id="tspan33"><tspan
   style="fill:#d5f6ff;stroke-width:0.168934"
   id="tspan2">DGTD</tspan> <tspan
   style="fill:#f6a426;fill-opacity:1;stroke-width:0.168934"
   id="tspan1">framework</tspan></tspan></text>
</g></svg>
